<svg xmlns="http://www.w3.org/2000/svg" width="50" height="50" viewBox="0 0 50 50">
  <g id="ic_foods" transform="translate(-170 -1015)">
    <rect id="Rectangle_11" data-name="Rectangle 11" width="50" height="50" transform="translate(170 1015)" fill="#efefef"/>
    <path id="Icon_map-food" data-name="Icon map-food" d="M32.3,10.229,29.7,30.566H20.94L18.356,10.128h10.7l2.114-7.3,1.2.361-2.029,7.028,1.959.015ZM17.117,22s.328-2.637-4.216-2.637H5.664C1.127,19.358,1.448,22,1.448,22H17.117ZM1.448,27.929s-.321,2.637,4.216,2.637H12.9c4.544,0,4.216-2.637,4.216-2.637ZM16.437,26.61a1.516,1.516,0,0,0,1.344-1.648,1.514,1.514,0,0,0-1.344-1.649H2.065A1.517,1.517,0,0,0,.72,24.963,1.519,1.519,0,0,0,2.065,26.61H16.437Z" transform="translate(178.28 1023.175)" fill="#071c4d"/>
  </g>
</svg>
