<svg xmlns="http://www.w3.org/2000/svg" width="50" height="50" viewBox="0 0 50 50">
  <g id="ic_language" transform="translate(-170 -1015)">
    <rect id="Rectangle_11" data-name="Rectangle 11" width="50" height="50" transform="translate(170 1015)" fill="#efefef"/>
    <path id="Icon_metro-language" data-name="Icon metro-language" d="M14.86,18.835q-.015.046-.193-.008t-.486-.177l-.309-.139a9.244,9.244,0,0,1-1.342-.756q-.108-.077-.633-.486t-.586-.44a26.283,26.283,0,0,1-2.067,2.792,11.469,11.469,0,0,1-1.62,1.7,1.223,1.223,0,0,1-.3.062.594.594,0,0,1-.285,0q.093-.062,1.265-1.419.324-.37,1.319-1.774a21.57,21.57,0,0,0,1.211-1.821q.262-.463.787-1.52a12.026,12.026,0,0,0,.555-1.2,12.678,12.678,0,0,0-1.7.509q-.123.031-.424.116t-.532.147a2.644,2.644,0,0,0-.262.077.262.262,0,0,0-.031.162.342.342,0,0,1-.015.147q-.077.154-.478.231a1.244,1.244,0,0,1-.725,0,.651.651,0,0,1-.432-.324.785.785,0,0,1-.077-.355,2.981,2.981,0,0,1,.378-.077,4.607,4.607,0,0,0,.455-.093q.895-.247,1.62-.494,1.543-.54,1.574-.54a3.423,3.423,0,0,0,.663-.3,6.979,6.979,0,0,1,.679-.332q.139-.046.332-.123t.224-.085a.207.207,0,0,1,.093.008,1.756,1.756,0,0,1-.015.509,3.285,3.285,0,0,1-.193.417q-.193.386-.409.825t-.262.517a23.139,23.139,0,0,1-1.188,2.021l.987.432q.185.093,1.149.494l1.041.432q.062.015.162.393a1.169,1.169,0,0,1,.069.471Zm-3.163-7.5a.626.626,0,0,1-.062.432,1.4,1.4,0,0,1-.771.586,2.477,2.477,0,0,1-.926.185,1.277,1.277,0,0,1-.756-.4,1.16,1.16,0,0,1-.278-.633l.015-.046a.66.66,0,0,0,.3.077,1.342,1.342,0,0,0,.409,0q.154-.031.895-.247a4.4,4.4,0,0,1,.849-.216.3.3,0,0,1,.324.262Zm10.769,1.99.972,3.5-2.144-.648ZM5.372,25.669,16.079,22.09V6.168L5.372,9.763V25.669Zm19.146-4.891,1.574.478L23.3,11.121l-1.543-.478-3.332,8.269L20,19.39l.694-1.7,3.255,1ZM16.757,5.937,25.6,8.776V2.913Zm4.8,20.411,2.438.2-.833,2.468L22.543,28a11.437,11.437,0,0,1-4.258,1.666,7.394,7.394,0,0,1-1.4.185h-1.3a10.427,10.427,0,0,1-3.078-.6,10.245,10.245,0,0,1-2.831-1.311.322.322,0,0,1-.123-.247.3.3,0,0,1,.077-.208.258.258,0,0,1,.2-.085.869.869,0,0,1,.278.116l.471.255q.255.139.316.17a13.669,13.669,0,0,0,2.461.949,8.99,8.99,0,0,0,2.43.378,13.166,13.166,0,0,0,2.577-.224,12.716,12.716,0,0,0,2.422-.779q.231-.108.471-.239t.525-.293q.285-.162.44-.255ZM28.467,9.7V26.348l-11.941-3.8q-.216.093-5.785,1.967T5.063,26.394a.279.279,0,0,1-.278-.2.119.119,0,0,0-.015-.046V9.516a.689.689,0,0,1,.062-.154.694.694,0,0,1,.309-.17q1.635-.54,2.3-.771V2.5l8.609,3.055q.031,0,2.476-.849T23.4,3.029q2.43-.825,2.492-.825.309,0,.309.324V8.976Z" transform="translate(178.23 1023.796)" fill="#071c4d"/>
  </g>
</svg>
